# xmcd
#
# Track frame offsets:
#	150
#	17205
#	38130
#	58424
#	94866
#	117807
#	136346
#	155310
#	179618
#
# Disc length: 2813 seconds
#
# Revision: 0
# Processed by: cddbd v1.5.1PL0 Copyright (c) Steve Scherf et al.
# Submitted via: FairStars CD Ripper 1.01
#
DISCID=780afb09
DTITLE=Derrin Nauendorf - New History
DYEAR=2004
DGENRE=Blues
TTITLE0=Wasted In The City
TTITLE1=Queensland
TTITLE2=Careless Hands
TTITLE3=Let It Go
TTITLE4=If I Were A Winner
TTITLE5=What I Done To Her
TTITLE6=Shipwrecked
TTITLE7=Shatter Like Stars
TTITLE8=Get Behind The Mule
EXTD=
EXTT0=
EXTT1=
EXTT2=
EXTT3=
EXTT4=
EXTT5=written by Tex Perkins
EXTT6=
EXTT7=
EXTT8=written by Tom Waits
PLAYORDER=
